HIERARCHY
ROOT Hips
{
 OFFSET 0.000000 0.000000 0.000000
 CHANNELS 6 Xposition Yposition Zposition Yrotation Xrotation Zrotation
 JOINT Chest
 {
  OFFSET 0.000000 11.395451 -0.039534
  CHANNELS 3 Yrotation Xrotation Zrotation
  JOINT Chest2
  {
   OFFSET 0.000000 9.398669 0.071813
   CHANNELS 3 Yrotation Xrotation Zrotation
   JOINT Chest3
   {
    OFFSET 0.000000 8.489801 0.000000
    CHANNELS 3 Yrotation Xrotation Zrotation
    JOINT Chest4
    {
     OFFSET 0.000000 8.489801 0.000000
     CHANNELS 3 Yrotation Xrotation Zrotation
     JOINT Neck
     {
      OFFSET 0.000000 12.404889 0.000000
      CHANNELS 3 Yrotation Xrotation Zrotation
      JOINT Head
      {
       OFFSET 0.000000 8.903270 0.092239
       CHANNELS 3 Yrotation Xrotation Zrotation
       End Site
       {
        OFFSET 0.000000 17.592497 0.007158
       }
      }
     }
     JOINT RightCollar
     {
      OFFSET -3.196775 6.966722 0.000000
      CHANNELS 3 Yrotation Xrotation Zrotation
      JOINT RightShoulder
      {
       OFFSET -15.955896 0.000000 0.000000
       CHANNELS 3 Yrotation Xrotation Zrotation
       JOINT RightElbow
       {
        OFFSET -24.792472 0.000000 0.000000
        CHANNELS 3 Yrotation Xrotation Zrotation
        JOINT RightWrist
        {
         OFFSET -20.900115 0.000000 0.025002
         CHANNELS 3 Yrotation Xrotation Zrotation
         End Site
         {
          OFFSET -16.056692 0.000000 0.000000
         }
        }
       }
      }
     }
     JOINT LeftCollar
     {
      OFFSET 3.196775 6.966722 0.000000
      CHANNELS 3 Yrotation Xrotation Zrotation
      JOINT LeftShoulder
      {
       OFFSET 15.955896 0.000000 0.000000
       CHANNELS 3 Yrotation Xrotation Zrotation
       JOINT LeftElbow
       {
        OFFSET 24.792472 0.000000 0.000000
        CHANNELS 3 Yrotation Xrotation Zrotation
        JOINT LeftWrist
        {
         OFFSET 20.900115 0.000000 0.025002
         CHANNELS 3 Yrotation Xrotation Zrotation
         End Site
         {
          OFFSET 16.056692 0.000000 0.000000
         }
        }
       }
      }
     }
    }
   }
  }
 }
 JOINT RightHip
 {
  OFFSET -9.568995 0.193718 0.019767
  CHANNELS 3 Yrotation Xrotation Zrotation
  JOINT RightKnee
  {
   OFFSET 0.000000 -56.649296 0.015402
   CHANNELS 3 Yrotation Xrotation Zrotation
   JOINT RightAnkle
   {
    OFFSET 0.000000 -41.365147 0.021264
    CHANNELS 3 Yrotation Xrotation Zrotation
    JOINT RightToe
    {
     OFFSET 0.000000 -7.465940 17.672538
     CHANNELS 3 Yrotation Xrotation Zrotation
     End Site
     {
      OFFSET 0.000000 -1.736315 7.837145
     }
    }
   }
  }
 }
 JOINT LeftHip
 {
  OFFSET 9.568995 0.193718 0.019767
  CHANNELS 3 Yrotation Xrotation Zrotation
  JOINT LeftKnee
  {
   OFFSET 0.000000 -56.649296 0.015402
   CHANNELS 3 Yrotation Xrotation Zrotation
   JOINT LeftAnkle
   {
    OFFSET 0.000000 -41.365147 0.021264
    CHANNELS 3 Yrotation Xrotation Zrotation
    JOINT LeftToe
    {
     OFFSET 0.000000 -7.465940 17.672538
     CHANNELS 3 Yrotation Xrotation Zrotation
     End Site
     {
      OFFSET 0.000000 -1.736315 7.837145
     }
    }
   }
  }
 }
}
MOTION
Frames: 12
Frame Time: 0.016667
22.801024 106.360093 438.384877 -9.111150 -10.861880 -0.372528 0.590760 4.688152 -0.175460 0.264108 2.083399 -0.083887 0.264108 2.083399 -0.083887 0.198345 1.562513 -0.063809 -0.582392 15.695454 0.519267 -1.277763 -7.028564 1.183281 -2.953532 6.564897 10.372495 14.337227 -9.450261 79.176776 -0.307517 -15.045419 -7.401204 -0.346118 1.558067 -1.744783 -5.013516 -0.060919 -9.641954 4.316019 -5.956681 -74.887480 -3.280445 -2.367615 2.972372 3.004730 3.413972 -3.067166 3.385037 16.468993 -1.025261 0.530781 2.604561 0.113953 2.133689 -10.139850 -0.156674 0.000000 0.000000 0.000000 -0.195519 13.835881 1.927433 -1.871203 9.164946 -0.048350 12.495249 -11.688598 -0.909007 0.000000 0.000000 0.000000
22.813695 106.333461 438.271587 -9.126542 -10.817532 -0.402681 0.577499 4.652805 -0.172949 0.258183 2.067698 -0.082596 0.258183 2.067698 -0.082596 0.193896 1.550739 -0.062814 -0.587062 15.722479 0.506467 -1.281365 -6.978506 1.160729 -2.884169 6.578072 10.387665 14.256280 -9.445885 79.200602 -0.487514 -15.076513 -7.414721 -0.378493 1.576127 -1.729848 -4.959929 -0.011471 -9.627953 4.301332 -5.996699 -74.844758 -3.204345 -2.419983 2.984312 3.023445 3.415939 -3.062332 3.372626 16.368754 -1.000385 0.567866 2.609979 0.110074 2.125829 -10.118368 -0.148244 0.000000 0.000000 0.000000 -0.087090 13.740265 1.986513 -2.109965 9.223850 -0.065435 12.650815 -11.752223 -0.935363 0.000000 0.000000 0.000000
22.826365 106.306828 438.158298 -9.141955 -10.773191 -0.432841 0.564222 4.617467 -0.170412 0.252252 2.052000 -0.081293 0.252252 2.052000 -0.081294 0.189442 1.538967 -0.061811 -0.591729 15.749494 0.493637 -1.284964 -6.928471 1.138126 -2.814802 6.591220 10.402881 14.175333 -9.441473 79.224402 -0.667463 -15.107665 -7.428332 -0.410866 1.594275 -1.715019 -4.906322 0.037960 -9.613916 4.286623 -6.036711 -74.802025 -3.128216 -2.472307 2.996204 3.042156 3.417918 -3.057479 3.360155 16.268537 -0.975456 0.604955 2.615399 0.106229 2.117968 -10.096885 -0.139821 0.000000 -0.000000 0.000000 0.021170 13.644501 2.045334 -2.348795 9.282681 -0.082885 12.806431 -11.815804 -0.961750 0.000000 0.000000 0.000000
22.839355 106.286008 438.053297 -9.151704 -10.737497 -0.462834 0.550989 4.585941 -0.166647 0.246330 2.037997 -0.079453 0.246330 2.037997 -0.079453 0.184993 1.528466 -0.060405 -0.600461 15.775423 0.480841 -1.296178 -6.880385 1.117098 -2.752283 6.608034 10.418520 14.100891 -9.437543 79.243946 -0.831651 -15.138784 -7.442543 -0.439715 1.609785 -1.703216 -4.859623 0.090711 -9.605357 4.273293 -6.068904 -74.765865 -3.049955 -2.518733 3.012138 3.058184 3.416161 -3.051873 3.344210 16.177355 -0.951267 0.643239 2.621846 0.101014 2.107422 -10.075192 -0.131423 0.000000 -0.000000 0.000000 0.118520 13.554422 2.099585 -2.565997 9.333655 -0.098696 12.944249 -11.870479 -0.983846 0.000000 0.000000 0.000000
22.852428 106.274292 437.960812 -9.151946 -10.714044 -0.493020 0.537144 4.559158 -0.161000 0.240119 2.026105 -0.076778 0.240119 2.026105 -0.076778 0.180325 1.519549 -0.058374 -0.616779 15.801031 0.467231 -1.321240 -6.832797 1.097344 -2.699777 6.630879 10.434914 14.034010 -9.434048 79.258846 -0.977075 -15.172646 -7.459100 -0.463652 1.621782 -1.696109 -4.822752 0.149783 -9.604723 4.261915 -6.088977 -74.738850 -2.970128 -2.556312 3.034487 3.067731 3.405064 -3.042120 3.321356 16.098538 -0.927759 0.684506 2.629624 0.092895 2.092652 -10.053341 -0.122794 -0.000000 0.000000 -0.000000 0.199417 13.470539 2.147729 -2.752072 9.373126 -0.112151 13.055581 -11.912223 -0.999106 -0.000000 -0.000000 -0.000000
22.865820 106.268388 437.876615 -9.146511 -10.699228 -0.523030 0.523350 4.536185 -0.154147 0.233920 2.015908 -0.073574 0.233920 2.015908 -0.073574 0.175665 1.511903 -0.055946 -0.637167 15.825556 0.453649 -1.353917 -6.787157 1.079144 -2.654116 6.657406 10.451723 13.973634 -9.431070 79.269505 -1.106751 -15.206475 -7.476190 -0.484065 1.631081 -1.691968 -4.792800 0.212187 -9.609583 4.251939 -6.101234 -74.718413 -2.888199 -2.588067 3.060864 3.074603 3.390208 -3.031656 3.295042 16.028760 -0.905016 0.726972 2.638429 0.083411 2.075202 -10.031278 -0.114196 0.000000 -0.000000 -0.000000 0.269453 13.392401 2.191427 -2.916483 9.404791 -0.123833 13.149068 -11.945106 -1.009997 0.000000 -0.000000 -0.000000
22.880565 106.264235 437.796320 -9.141221 -10.690893 -0.551590 0.511651 4.518029 -0.146897 0.228649 2.007850 -0.070220 0.228649 2.007850 -0.070220 0.171700 1.505862 -0.053411 -0.655146 15.845653 0.442703 -1.383132 -6.749738 1.065032 -2.612649 6.684234 10.468314 13.923104 -9.429338 79.272884 -1.214025 -15.231808 -7.488959 -0.501601 1.637463 -1.688575 -4.767947 0.272281 -9.618147 4.243081 -6.110777 -74.703438 -2.800430 -2.617115 3.088206 3.087533 3.384651 -3.029964 3.272181 15.967042 -0.884063 0.766461 2.648375 0.075759 2.057017 -10.008629 -0.106410 -0.000000 0.000000 -0.000000 0.334622 13.324429 2.231225 -3.065957 9.431895 -0.133629 13.232842 -11.972423 -1.019699 -0.000000 -0.000000 -0.000000
22.897319 106.260880 437.718822 -9.137865 -10.689733 -0.578325 0.502814 4.505707 -0.139267 0.224648 2.002385 -0.066732 0.224648 2.002385 -0.066732 0.168688 1.501764 -0.050780 -0.668336 15.859002 0.435218 -1.404783 -6.724867 1.055712 -2.574557 6.710005 10.484575 13.883581 -9.428290 79.266707 -1.296934 -15.244706 -7.494870 -0.516180 1.640226 -1.684965 -4.748450 0.326758 -9.631116 4.235649 -6.119195 -74.694016 -2.700338 -2.644907 3.116869 3.111809 3.396310 -3.042437 3.252765 15.913871 -0.866323 0.803248 2.661043 0.071906 2.038880 -9.985199 -0.100441 0.000000 0.000000 0.000000 0.397939 13.269618 2.267285 -3.202657 9.455400 -0.141070 13.308819 -11.994473 -1.029373 0.000000 0.000000 0.000000
22.915426 106.259275 437.645227 -9.134644 -10.695056 -0.603614 0.496079 4.498196 -0.131247 0.221578 1.999057 -0.063097 0.221578 1.999057 -0.063097 0.166373 1.499270 -0.048043 -0.679114 15.867930 0.430395 -1.422976 -6.708200 1.050535 -2.540658 6.736081 10.500604 13.853902 -9.428500 79.253264 -1.357472 -15.249047 -7.496441 -0.527886 1.640054 -1.682057 -4.734064 0.378927 -9.647805 4.229332 -6.124899 -74.690057 -2.594415 -2.670058 3.146494 3.142134 3.417355 -3.063591 3.236818 15.868748 -0.850395 0.837054 2.674846 0.069875 2.020010 -9.961184 -0.095283 -0.000000 -0.000000 -0.000000 0.456448 13.225003 2.299530 -3.324405 9.474367 -0.146520 13.375082 -12.010958 -1.037874 -0.000000 -0.000000 0.000000
22.933950 106.258223 437.574457 -9.132006 -10.702631 -0.627327 0.491193 4.493448 -0.123603 0.219333 1.996957 -0.059651 0.219333 1.996957 -0.059651 0.164678 1.497696 -0.045450 -0.688134 15.876057 0.428417 -1.438943 -6.693001 1.050026 -2.510748 6.763160 10.516084 13.833921 -9.432397 79.236367 -1.394931 -15.248077 -7.496404 -0.537609 1.638823 -1.680473 -4.722213 0.433065 -9.664329 4.222913 -6.128219 -74.690167 -2.498381 -2.691383 3.172960 3.171376 3.437222 -3.086597 3.231296 15.829213 -0.833074 0.862870 2.685148 0.066925 2.000008 -9.936792 -0.088711 0.000000 0.000000 0.000000 0.507186 13.186056 2.328129 -3.431422 9.489176 -0.151127 13.434021 -12.024266 -1.044946 0.000000 -0.000000 -0.000000
22.952504 106.257385 437.506929 -9.130834 -10.711978 -0.649295 0.488280 4.491125 -0.116281 0.217968 1.995933 -0.056368 0.217968 1.995933 -0.056368 0.163644 1.496930 -0.042984 -0.694433 15.884746 0.429724 -1.451032 -6.676749 1.054630 -2.484966 6.791878 10.530478 13.823656 -9.440221 79.216551 -1.406540 -15.240804 -7.496159 -0.545401 1.637635 -1.680465 -4.712416 0.492188 -9.679628 4.214555 -6.129684 -74.695883 -2.415257 -2.707610 3.196415 3.198741 3.453105 -3.111201 3.244019 15.796493 -0.811683 0.877443 2.688898 0.061686 1.976135 -9.912074 -0.079729 0.000000 -0.000000 0.000000 0.548863 13.153560 2.352917 -3.521984 9.498077 -0.154988 13.485483 -12.034631 -1.050328 -0.000000 0.000000 -0.000000
22.971475 106.257099 437.442227 -9.130243 -10.723577 -0.669687 0.487220 4.491563 -0.109335 0.217430 1.996135 -0.053274 0.217430 1.996135 -0.053274 0.163230 1.497082 -0.040662 -0.698972 15.892635 0.433882 -1.460896 -6.661958 1.063914 -2.463171 6.821602 10.544315 13.823091 -9.451719 79.193277 -1.395069 -15.228227 -7.494298 -0.551210 1.635380 -1.681777 -4.705158 0.553281 -9.694764 4.206085 -6.128762 -74.705664 -2.342013 -2.719993 3.216742 3.225022 3.467810 -3.137685 3.267172 15.769332 -0.788917 0.884026 2.689152 0.055501 1.951131 -9.886977 -0.069337 0.000000 -0.000000 0.000000 0.582800 13.126765 2.374096 -3.597805 9.502824 -0.157933 13.529619 -12.041819 -1.054289 -0.000000 -0.000000 0.000000
